<svg xmlns="http://www.w3.org/2000/svg" width="65" height="65" viewBox="0 0 65 65">
  <path id="Icon_awesome-facebook-square" data-name="Icon awesome-facebook-square" d="M58.036,2.25H6.964A6.964,6.964,0,0,0,0,9.214V60.286A6.964,6.964,0,0,0,6.964,67.25H26.878v-22.1H17.737V34.75h9.141V26.822c0-9.017,5.368-14,13.59-14a55.375,55.375,0,0,1,8.055.7v8.85H43.987c-4.47,0-5.864,2.774-5.864,5.619V34.75H48.1l-1.6,10.4H38.122v22.1H58.036A6.964,6.964,0,0,0,65,60.286V9.214A6.964,6.964,0,0,0,58.036,2.25Z" transform="translate(0 -2.25)" fill="#fdfdfc"/>
</svg>
