<svg xmlns="http://www.w3.org/2000/svg" width="65" height="65" viewBox="0 0 65 65">
  <path id="Icon_awesome-linkedin" data-name="Icon awesome-linkedin" d="M60.357,2.25H4.628A4.663,4.663,0,0,0,0,6.936V62.564A4.663,4.663,0,0,0,4.628,67.25H60.357A4.675,4.675,0,0,0,65,62.564V6.936A4.675,4.675,0,0,0,60.357,2.25ZM19.645,57.964H10.011V26.944H19.66v31.02ZM14.828,22.708a5.586,5.586,0,1,1,5.586-5.586,5.588,5.588,0,0,1-5.586,5.586Zm40.93,35.257H46.124V42.875c0-3.6-.073-8.227-5.006-8.227-5.02,0-5.789,3.917-5.789,7.965v15.35H25.7V26.944h9.242v4.237h.131a10.147,10.147,0,0,1,9.126-5.006c9.75,0,11.564,6.427,11.564,14.785Z" transform="translate(0 -2.25)" fill="#fdfdfc"/>
</svg>
