<?xml version="1.0" encoding="UTF-8"?><svg id="Layer_2" xmlns="http://www.w3.org/2000/svg" viewBox="0 0 412.81 82.64"><defs><style>.cls-1{fill:#13372b;}</style></defs><g id="Lag_1"><g><path class="cls-1" d="M62,.75h-16.02V26.34H29.91c-.39-6.85-3.24-13.25-8.14-18.15C16.5,2.91,9.47,0,2,0H0V67.95c0,7.69,6.25,13.94,13.94,13.94H29.96v-25.59h16.07c.39,6.85,3.24,13.25,8.14,18.15,5.28,5.28,12.3,8.19,19.77,8.19h2V14.69c0-7.69-6.25-13.94-13.94-13.94Zm-13.99,51.56h0c-.13,0-.27,0-.41,0H27.96c-13.21,0-23.96-10.75-23.96-23.96v-11.89c4.89,8.18,13.79,13.74,23.93,13.88h0c.13,0,.27,.01,.41,.01h19.64c6.4,0,12.42,2.49,16.94,7.01,4.52,4.53,7.02,10.55,7.02,16.95v11.89c-4.89-8.18-13.79-13.74-23.93-13.88ZM25.89,26.2C14.33,25.04,5.1,15.67,4.1,4.09c5.61,.48,10.82,2.89,14.85,6.92,4.11,4.12,6.53,9.46,6.95,15.19Zm-11.95,51.69c-5.48,0-9.94-4.46-9.94-9.94v-25.22c4.57,7.58,12.64,12.82,21.96,13.49v21.67H13.94Zm36.11-21.45c11.56,1.17,20.79,10.53,21.79,22.11-5.61-.48-10.82-2.89-14.85-6.92-4.11-4.12-6.53-9.46-6.95-15.19Zm17.7-21.91c-4.81-4.8-11.06-7.64-17.77-8.11V4.75h12.02c5.48,0,9.94,4.46,9.94,9.94v25.18c-1.16-1.92-2.56-3.72-4.19-5.34Z"/><g><path class="cls-1" d="M117.52,62.51h-5.49c-1.09,0-1.69-.6-1.69-1.69v-15.4h-12.5v15.4c0,1.09-.6,1.69-1.69,1.69h-5.5V22.96h5.5c1.09,0,1.69,.6,1.69,1.69v14.25h12.5v-14.25c0-1.09,.6-1.69,1.69-1.69h5.49V62.51Z"/><path class="cls-1" d="M139.98,48.86v11.96c0,1.09-.6,1.69-1.69,1.69h-5.5v-13.65l-11.47-25.91h6.7c.97,0,1.57,.42,1.93,1.39l6.46,17.51,6.52-17.57c.36-.91,.97-1.33,1.99-1.33h6.46l-11.41,25.91Z"/><path class="cls-1" d="M182.19,38.3v9.42c0,9.78-5.07,15.52-15.88,15.52-3.8,0-7.55-.12-11.05-.36V22.6c3.08-.12,7.25-.3,11.59-.3,9.96,0,15.34,5.8,15.34,16Zm-19.75-9.54v27.84c1.75,.18,3.02,.24,4.17,.24,5.19,0,8.39-2.96,8.39-8.76v-10.15c0-6.34-3.14-9.3-8.39-9.3-1.39,0-2.78,0-4.17,.12Z"/><path class="cls-1" d="M213.71,33.34v1.45c0,4.23-2.29,8.03-6.7,9.9l9.78,17.81h-6.52c-1.03,0-1.63-.36-2.11-1.21l-7.91-14.73c-1.03,.12-3.02,.06-4.71-.06v14.31c0,1.09-.6,1.69-1.69,1.69h-5.5V22.6c5.19-.24,8.7-.36,11.05-.36,10.08,0,14.31,4.35,14.31,11.11Zm-18.18-4.65v11.53c1.81,.18,2.72,.24,3.93,.24,5.01,0,7-2.17,7-5.74v-.97c0-3.44-1.99-5.19-7-5.19-.97,0-2.72,.06-3.93,.12Z"/><path class="cls-1" d="M246.56,35.58v14.31c0,8.33-4.11,13.35-13.65,13.35s-13.59-5.01-13.59-13.35v-14.31c0-8.45,4.11-13.35,13.59-13.35s13.65,4.89,13.65,13.35Zm-20.05-.54v15.34c0,4.17,2.17,6.34,6.4,6.34s6.4-2.17,6.4-6.34v-15.28c0-4.11-2.11-6.34-6.4-6.34s-6.4,2.17-6.4,6.28Z"/></g><g><path class="cls-1" d="M276.15,23.68l-10.39,34.08-10.2-34.04c-.16-.74-.7-1.14-1.52-1.14h-3.41l12.35,40.04,.08,.27h5.33l12.46-39.82,.15-.49h-3.35c-.74,0-1.27,.38-1.51,1.1Z"/><path class="cls-1" d="M286.09,62.89h20.44v-2.55c0-.88-.52-1.4-1.41-1.4h-14.78v-14.58h13.57c.87,0,1.4-.54,1.4-1.4v-1.09c0-.88-.52-1.41-1.4-1.41h-13.57v-13.92h14.78c.88,0,1.41-.52,1.41-1.4v-2.55h-20.44V62.89Z"/><path class="cls-1" d="M339.32,34.31v-1.45c0-5.02-2.39-11.01-13.78-11.01-2.87,0-5.99,.12-10.1,.3l-.36,.02V62.89h2.85c.88,0,1.41-.52,1.41-1.41v-15.83c3.29,.25,6.43,.27,8.53,.05l9.19,16.28c.38,.62,.87,.9,1.53,.9h3.79l-10.3-18.09c4.61-1.55,7.25-5.35,7.25-10.49Zm-19.99-8.45c1.67-.06,4.83-.17,6.08-.17,6.67,0,9.65,2.29,9.65,7.41v1.09c0,5.43-3.01,7.95-9.47,7.95-1.49,0-3.38-.08-6.26-.28V25.86Z"/><path class="cls-1" d="M344.05,25.13c0,.88,.52,1.4,1.41,1.4h10.49V62.89h2.85c.84,0,1.4-.56,1.4-1.41V26.54h10.49c.84,0,1.41-.56,1.41-1.4v-2.55h-28.05v2.55Z"/><path class="cls-1" d="M381.21,22.58h-2.85V62.89h4.26V23.98c0-.88-.52-1.41-1.41-1.41Z"/><path class="cls-1" d="M412.74,60.03c0-.56-.23-.87-.43-1.03-.29-.24-.69-.33-1.17-.24l-.42,.08c-1.88,.36-4.02,.76-6.4,.76-3.1,.06-5.27-.57-6.63-1.91-1.33-1.31-1.98-3.38-1.98-6.35v-17.21c0-6.11,2.3-8.38,8.5-8.38,2.56,0,5.01,.48,6.88,.9,.48,.08,.88,0,1.16-.24,.28-.24,.42-.61,.42-1.09l.07-2.43-.31-.06c-3.15-.65-5.82-.97-8.17-.97-9.1,0-12.82,3.64-12.82,12.58v16.67c0,8.77,3.82,12.52,12.76,12.52,2.66,0,5.23-.39,8.28-.97l.32-.06-.07-2.55Z"/></g></g></g></svg>